<svg xmlns="http://www.w3.org/2000/svg" viewBox="0 0 100 100">
  <defs>
    <linearGradient id="g" x1="0" y1="0" x2="1" y2="1">
      <stop offset="0" stop-color="#F5C400"/><stop offset="1" stop-color="#C79A00"/>
    </linearGradient>
    <linearGradient id="i" x1="0" y1="0" x2="0" y2="1">
      <stop offset="0" stop-color="#1B2333"/><stop offset="1" stop-color="#0B1220"/>
    </linearGradient>
  </defs>
  <circle cx="50" cy="50" r="44" fill="#FFFFFF" stroke="url(#i)" stroke-width="5"/>
  <g stroke="url(#i)" stroke-linecap="round" stroke-linejoin="round" fill="none">
    <path d="M38 78 L62 78" stroke-width="4"/>
    <path d="M50 32 L50 78" stroke-width="4"/>
    <path d="M28 42 L72 42" stroke-width="4"/>
    <path d="M32 42 L26 60" stroke-width="2"/>
    <path d="M40 42 L46 60" stroke-width="2"/>
    <path d="M60 42 L54 60" stroke-width="2"/>
    <path d="M68 42 L74 60" stroke-width="2"/>
  </g>
  <path d="M22 60 Q36 72 46 60 Z" fill="url(#g)" stroke="#8A6B00" stroke-width="1"/>
  <path d="M54 60 Q64 72 78 60 Z" fill="url(#g)" stroke="#8A6B00" stroke-width="1"/>
  <path d="M30 54 L46 70 L82 30" stroke="url(#g)" stroke-width="7" stroke-linecap="round" stroke-linejoin="round" fill="none"/>
  <g transform="translate(70 22)">
    <circle cx="0" cy="0" r="10" fill="url(#g)"/>
    <path d="M-4 0 L-1 3 L4 -3" stroke="#FFFFFF" stroke-width="2" fill="none" stroke-linecap="round" stroke-linejoin="round"/>
  </g>
</svg>
